<svg width="56" height="56" viewBox="0 0 56 56" fill="none" xmlns="http://www.w3.org/2000/svg">
<rect width="56" height="56" rx="8" fill="url(#paint0_linear_837_689)"/>
<path d="M34 19C33.2044 19 32.4413 19.3161 31.8787 19.8787C31.3161 20.4413 31 21.2044 31 22V34C31 34.7956 31.3161 35.5587 31.8787 36.1213C32.4413 36.6839 33.2044 37 34 37C34.7956 37 35.5587 36.6839 36.1213 36.1213C36.6839 35.5587 37 34.7956 37 34C37 33.2044 36.6839 32.4413 36.1213 31.8787C35.5587 31.3161 34.7956 31 34 31H22C21.2044 31 20.4413 31.3161 19.8787 31.8787C19.3161 32.4413 19 33.2044 19 34C19 34.7956 19.3161 35.5587 19.8787 36.1213C20.4413 36.6839 21.2044 37 22 37C22.7956 37 23.5587 36.6839 24.1213 36.1213C24.6839 35.5587 25 34.7956 25 34V22C25 21.2044 24.6839 20.4413 24.1213 19.8787C23.5587 19.3161 22.7956 19 22 19C21.2044 19 20.4413 19.3161 19.8787 19.8787C19.3161 20.4413 19 21.2044 19 22C19 22.7956 19.3161 23.5587 19.8787 24.1213C20.4413 24.6839 21.2044 25 22 25H34C34.7956 25 35.5587 24.6839 36.1213 24.1213C36.6839 23.5587 37 22.7956 37 22C37 21.2044 36.6839 20.4413 36.1213 19.8787C35.5587 19.3161 34.7956 19 34 19Z" stroke="#EFF6FF" stroke-width="2" stroke-linecap="round" stroke-linejoin="round"/>
<defs>
<linearGradient id="paint0_linear_837_689" x1="56" y1="56" x2="6" y2="-1.17081e-06" gradientUnits="userSpaceOnUse">
<stop stop-color="#3B82F6"/>
<stop offset="1" stop-color="#86B4FF"/>
</linearGradient>
</defs>
</svg>
