<svg width="35" height="26" viewBox="0 0 35 26" fill="none" xmlns="http://www.w3.org/2000/svg">
<path d="M1.5 12.7982C1.5 7.34359 5.1972 2.61206 10.3722 1.95282C15.2866 1.32679 19.5564 1.36629 24.2229 1.96989C29.4293 2.64333 33.1667 7.39316 33.1667 12.8625C33.1667 19.2897 27.9564 24.5 21.5292 24.5H13.2018C6.73908 24.5 1.5 19.2609 1.5 12.7982Z" fill="#00AEEF" stroke="#2D2D2D" stroke-width="3"/>
<path d="M5 4.5C4.72386 4.5 4.5 4.72386 4.5 5C4.5 5.27614 4.72386 5.5 5 5.5V4.5ZM5 5.5H13.6772V4.5H5V5.5Z" fill="#2D2D2D"/>
<mask id="path-3-inside-1_58_268" fill="white">
<path d="M5.19995 14.1502C5.19995 10.3991 8.2412 7.35828 11.9923 7.35828C15.9523 7.35828 19.3516 7.35828 23.1835 7.35828C26.9719 7.35828 30.0444 10.4294 30.0444 14.2178C30.0444 19.0089 25.2576 22.324 20.7726 20.6392L19.8669 20.2989C18.236 19.6863 16.4359 19.7003 14.8148 20.3383L14.4792 20.4704C10.023 22.2241 5.19995 18.9392 5.19995 14.1502Z"/>
</mask>
<path d="M5.19995 14.1502C5.19995 10.3991 8.2412 7.35828 11.9923 7.35828C15.9523 7.35828 19.3516 7.35828 23.1835 7.35828C26.9719 7.35828 30.0444 10.4294 30.0444 14.2178C30.0444 19.0089 25.2576 22.324 20.7726 20.6392L19.8669 20.2989C18.236 19.6863 16.4359 19.7003 14.8148 20.3383L14.4792 20.4704C10.023 22.2241 5.19995 18.9392 5.19995 14.1502Z" fill="white"/>
<path d="M23.1835 7.35828V9.35828V7.35828ZM11.9923 9.35828C15.9523 9.35828 19.3516 9.35828 23.1835 9.35828V5.35828C19.3516 5.35828 15.9524 5.35828 11.9923 5.35828V9.35828ZM21.4759 18.7669L20.5702 18.4267L19.1636 22.1712L20.0693 22.5114L21.4759 18.7669ZM14.0824 18.4773L13.7468 18.6093L15.2116 22.3315L15.5472 22.1994L14.0824 18.4773ZM20.5702 18.4267C18.4759 17.6399 16.1642 17.658 14.0824 18.4773L15.5472 22.1994C16.7076 21.7427 17.9962 21.7327 19.1636 22.1712L20.5702 18.4267ZM3.19995 14.1502C3.19995 20.3493 9.44317 24.6016 15.2116 22.3315L13.7468 18.6093C10.6028 19.8467 7.19995 17.529 7.19995 14.1502H3.19995ZM28.0444 14.2178C28.0444 17.612 24.6533 19.9605 21.4759 18.7669L20.0693 22.5114C25.862 24.6875 32.0444 20.4058 32.0444 14.2178H28.0444ZM23.1835 9.35828C25.8679 9.35828 28.0444 11.5345 28.0444 14.2178H32.0444C32.0444 9.32431 28.076 5.35828 23.1835 5.35828V9.35828ZM11.9923 5.35828C7.13678 5.35828 3.19995 9.29443 3.19995 14.1502H7.19995C7.19995 11.5039 9.34562 9.35828 11.9923 9.35828V5.35828Z" fill="#2D2D2D" mask="url(#path-3-inside-1_58_268)"/>
<path d="M30 15H32.6795" stroke="#2D2D2D" stroke-linecap="round"/>
<line x1="18.5" y1="5.5" x2="18.5" y2="8.5" stroke="#2D2D2D" stroke-linecap="round"/>
<path d="M21 21.5974V20" stroke="#2D2D2D" stroke-linecap="round"/>
<path d="M15.1778 4.91532C15.1778 5.51669 14.6903 6.00421 14.0889 6.00421C13.4876 6.00421 13.0001 5.51669 13.0001 4.91532C13.0001 4.31394 13.4876 3.82643 14.0889 3.82643C14.6903 3.82643 15.1778 4.31394 15.1778 4.91532Z" fill="#00AEEF" stroke="#2D2D2D"/>
<path d="M18.4778 5.09998H24.5245" stroke="#2D2D2D" stroke-linecap="round"/>
<path d="M24.4999 5L26.0519 3.73021" stroke="#2D2D2D" stroke-linecap="round"/>
<line x1="1.07773" y1="13.0779" x2="5.51564" y2="13.0779" stroke="#2D2D2D" stroke-linecap="round"/>
<path d="M7.67606 22H21.1714" stroke="#2D2D2D" stroke-linecap="round"/>
<rect x="11.5555" y="10.4" width="2.88889" height="6.35556" rx="1.44444" fill="#2D2D2D"/>
<rect x="19.6443" y="10.4" width="2.88889" height="6.35556" rx="1.44444" fill="#2D2D2D"/>
</svg>
